<?xml version="1.0" standalone="no"?>
<!DOCTYPE svg PUBLIC "-//W3C//DTD SVG 20010904//EN"
 "http://www.w3.org/TR/2001/REC-SVG-20010904/DTD/svg10.dtd">
<svg version="1.0" xmlns="http://www.w3.org/2000/svg"
 width="700.000000pt" height="700.000000pt" viewBox="0 0 700.000000 700.000000"
 preserveAspectRatio="xMidYMid meet">
<metadata>
Created by potrace 1.14, written by Peter Selinger 2001-2017
</metadata>
<g transform="translate(0.000000,700.000000) scale(0.100000,-0.100000)"
fill="#000000" stroke="none">
<path d="M3298 6705 c-2 -2 -37 -6 -80 -9 -42 -4 -91 -9 -110 -11 -18 -3 -53
-8 -78 -11 -25 -3 -76 -12 -115 -19 -38 -8 -81 -16 -95 -19 -91 -16 -270 -68
-414 -120 -777 -283 -1410 -850 -1782 -1596 -149 -299 -261 -660 -300 -965 -2
-22 -7 -51 -9 -65 -26 -160 -26 -640 -1 -767 3 -12 7 -48 11 -80 3 -32 8 -65
10 -73 2 -8 7 -34 10 -57 3 -23 19 -97 36 -165 116 -480 345 -933 663 -1313
87 -103 267 -284 366 -367 52 -44 104 -88 116 -98 12 -9 72 -53 135 -97 198
-140 448 -275 669 -361 70 -27 197 -70 315 -105 44 -13 192 -48 265 -62 14 -3
48 -8 75 -11 28 -3 68 -10 90 -14 139 -29 656 -33 801 -6 10 2 46 7 79 10 261
29 632 142 925 279 154 73 419 230 509 302 9 8 63 50 121 96 129 100 367 337
482 479 237 292 422 627 543 982 39 115 91 302 101 363 3 22 8 43 10 46 3 5
15 74 29 174 4 22 8 51 10 64 26 154 26 609 0 781 -2 14 -7 50 -10 80 -4 30
-8 57 -10 60 -2 3 -6 24 -9 46 -48 320 -217 767 -410 1084 -424 697 -1101
1212 -1879 1429 -113 32 -317 75 -402 86 -27 3 -59 8 -70 10 -66 13 -586 31
-597 20z m22 -594 c0 -4 -27 -53 -61 -111 -34 -58 -71 -123 -84 -145 -12 -22
-72 -125 -132 -230 -61 -104 -154 -266 -208 -360 -54 -93 -129 -224 -168 -290
-39 -66 -87 -149 -107 -185 -20 -36 -87 -153 -150 -260 -62 -107 -144 -250
-183 -318 -56 -97 -73 -120 -82 -110 -17 18 -627 1078 -632 1098 -3 12 36 58
119 141 68 68 135 133 149 144 13 11 47 38 74 61 371 303 863 509 1340 560 33
3 61 7 62 8 6 5 63 2 63 -3z m715 -41 c22 -5 51 -11 65 -13 74 -14 277 -79
401 -130 415 -170 819 -479 1079 -826 14 -18 34 -45 45 -59 12 -15 29 -39 38
-54 17 -27 17 -28 -5 -28 -30 -1 -2208 -1 -2275 0 l-53 0 44 73 c24 39 147
252 274 472 126 220 239 416 251 435 11 19 30 53 42 75 25 46 39 65 48 65 3 0
24 -5 46 -10z m-2678 -1775 c105 -182 199 -346 210 -365 11 -19 85 -147 165
-285 418 -721 583 -1010 581 -1015 -2 -3 -291 -5 -644 -5 -560 0 -642 2 -649
15 -25 48 -101 353 -115 465 -3 28 -8 57 -10 65 -23 89 -23 545 1 663 2 12 7
42 10 67 3 25 15 86 25 135 11 50 22 104 25 120 11 58 94 295 140 400 41 92
48 104 59 88 6 -10 97 -167 202 -348z m2726 -55 c43 -74 89 -153 101 -175 13
-22 91 -158 175 -302 l152 -263 -25 -42 c-14 -24 -35 -61 -47 -83 -12 -22 -41
-71 -64 -110 -23 -38 -53 -90 -67 -115 -33 -60 -211 -368 -263 -455 l-41 -70
-495 -1 c-272 0 -501 3 -509 7 -8 4 -24 25 -35 46 -11 21 -22 40 -25 43 -3 3
-11 16 -18 30 -7 14 -18 34 -25 45 -7 11 -42 71 -77 133 -36 62 -72 125 -81
140 -9 15 -69 118 -133 230 l-117 202 117 203 c65 111 125 215 135 232 10 16
24 41 32 55 77 140 212 367 221 375 8 6 194 10 512 10 l499 0 78 -135z m1905
95 c42 -123 93 -331 106 -435 3 -25 8 -54 10 -65 10 -50 19 -221 19 -345 0
-191 -12 -313 -49 -500 -31 -153 -25 -131 -68 -272 -30 -98 -113 -309 -143
-363 -7 -12 -17 -1 -45 47 -69 120 -435 755 -593 1028 -87 151 -188 327 -225
390 -37 63 -77 131 -87 150 -11 19 -66 114 -122 211 -55 96 -101 180 -101 185
0 5 257 9 642 9 l643 0 13 -40z m-913 -1810 c114 -198 217 -378 230 -400 12
-22 31 -56 42 -75 93 -159 143 -249 143 -256 0 -5 -39 -50 -88 -100 -220 -230
-440 -394 -717 -534 -208 -106 -483 -202 -665 -234 -19 -3 -46 -8 -59 -11 -33
-6 -163 -23 -234 -30 l-58 -6 14 23 c15 23 395 680 445 768 14 25 81 142 150
260 133 228 229 396 270 470 14 25 33 57 43 72 11 14 19 29 19 32 0 4 11 25
26 47 14 22 33 55 43 72 138 245 165 287 176 275 7 -7 106 -175 220 -373z
m-1418 -488 c5 -6 -22 -56 -141 -260 -156 -268 -381 -657 -401 -694 -46 -85
-87 -153 -96 -159 -17 -10 -401 92 -434 116 -5 4 -28 13 -50 20 -57 18 -311
142 -381 186 -88 55 -167 107 -184 121 -176 138 -240 193 -340 294 -140 141
-319 371 -296 379 19 6 2316 3 2323 -3z"/>
</g>
</svg>
